<svg id="组_115" data-name="组 115" xmlns="http://www.w3.org/2000/svg" width="94" height="100" viewBox="0 0 94 100">
  <metadata><?xpacket begin="﻿" id="W5M0MpCehiHzreSzNTczkc9d"?>
<x:xmpmeta xmlns:x="adobe:ns:meta/" x:xmptk="Adobe XMP Core 5.6-c138 79.159824, 2016/09/14-01:09:01        ">
   <rdf:RDF xmlns:rdf="http://www.w3.org/1999/02/22-rdf-syntax-ns#">
      <rdf:Description rdf:about=""/>
   </rdf:RDF>
</x:xmpmeta>
                                                                                                    
                                                                                                    
                                                                                                    
                                                                                                    
                                                                                                    
                                                                                                    
                                                                                                    
                                                                                                    
                                                                                                    
                                                                                                    
                                                                                                    
                                                                                                    
                                                                                                    
                                                                                                    
                                                                                                    
                                                                                                    
                                                                                                    
                                                                                                    
                                                                                                    
                                                                                                    
                           
<?xpacket end="w"?></metadata>
<defs>
    <style>
      .cls-1 {
        font-size: 14px;
        fill: #97b6db;
        text-anchor: middle;
        font-family: "PingFang SC";
      }

      .cls-2 {
        fill: #97bcdb;
        fill-rule: evenodd;
      }
    </style>
  </defs>
  <text id="暂无需求" class="cls-1" x="50.077" y="98.198">暂无需求</text>
  <path id="矩形_4259_拷贝_2" data-name="矩形 4259 拷贝 2" class="cls-2" d="M1873,1916v-76h94v76h-94Zm92-74h-90v18h90v-18Zm0,20h-90v52h90v-52Zm-59,17h-24v-3h24v3Zm0,9h-24v-3h24v3Zm0,9h-24v-3h24v3Zm41.07-24.38a17.986,17.986,0,0,1,1.33,23.95l11.4,11.4-2.83,2.83-11.4-11.4A17.992,17.992,0,1,1,1947.07,1872.62Zm-24.04,24.04a16,16,0,1,0,0-22.63A16,16,0,0,0,1923.03,1896.66Zm6.36-19.1,4.95,4.95,4.95-4.95,2.83,2.83-4.95,4.95,4.95,4.95-2.83,2.83-4.95-4.95-4.95,4.95-2.83-2.83,4.95-4.95-4.95-4.95ZM1890,1853h-8v-4h8v4Zm12,0h-8v-4h8v4Zm12,0h-8v-4h8v4Z" transform="translate(-1873 -1840)"/>
</svg>
