<svg id="暂无见面课播出" xmlns="http://www.w3.org/2000/svg" width="108" height="128" viewBox="0 0 108 128">
  <metadata><?xpacket begin="﻿" id="W5M0MpCehiHzreSzNTczkc9d"?>
<x:xmpmeta xmlns:x="adobe:ns:meta/" x:xmptk="Adobe XMP Core 5.6-c138 79.159824, 2016/09/14-01:09:01        ">
   <rdf:RDF xmlns:rdf="http://www.w3.org/1999/02/22-rdf-syntax-ns#">
      <rdf:Description rdf:about=""/>
   </rdf:RDF>
</x:xmpmeta>
                                                                                                    
                                                                                                    
                                                                                                    
                                                                                                    
                                                                                                    
                                                                                                    
                                                                                                    
                                                                                                    
                                                                                                    
                                                                                                    
                                                                                                    
                                                                                                    
                                                                                                    
                                                                                                    
                                                                                                    
                                                                                                    
                                                                                                    
                                                                                                    
                                                                                                    
                                                                                                    
                           
<?xpacket end="w"?></metadata>
<defs>
    <style>
      .cls-1, .cls-2 {
        fill: #97bcdb;
      }

      .cls-1 {
        fill-rule: evenodd;
      }

      .cls-2 {
        font-size: 14px;
        font-family: "PingFang SC";
      }
    </style>
  </defs>
  <path id="矩形_4268" data-name="矩形 4268" class="cls-1" d="M556,2877v-4H664v4H556Zm6-14v-54h96v54H562Zm94-52H564v50h92v-50Zm-68.782,29.99-12.728,12.73-0.708-.71,12.728-12.73ZM610,2824a12,12,0,1,1-12,12A12,12,0,0,1,610,2824Zm-2,16.99L616,2836,608,2831.01v9.98Zm38.223-21-12.728,12.73-0.708-.71,12.728-12.73ZM556,2806H664v2H556v-2Zm19,100h-3v-28h3v28Zm17,0H579v-28h13v28Zm-10-6h1v1h-1v1h1v1h1v1h1v-1h1v1h1v-1h1v-1h1v-1h-1v-1h1v-1h-1v-1h-1v-1h-1v1h-1v-1h-1v1h-1v1h-1v1Zm8-19h-9v1h9v-1Zm0,2h-9v1h9v-1Zm1,11H580v1h11v-1Zm-7,5v1h-1v-1h1Zm0,3h-1v-1h1v1Zm1,0v1h-1v-1h1Zm2,0v1h-1v-1h1Zm0-1h1v1h-1v-1Zm0-2h1v1h-1v-1Zm-1,0v-1h1v1h-1Zm-2,0v-1h1v1h-1Zm1,2h-1v-1h1v1Zm1,0v1h-1v-1h1Zm0-1h1v1h-1v-1Zm-1,0v-1h1v1h-1Zm19,4h25v-10h-2v-6h5v6h-2v11H604v1H594v-3h10v1Zm44,2h-3v-28h3v28Z" transform="translate(-556 -2806)"/>
  <text id="暂无见面课播出-2" data-name="暂无见面课播出" class="cls-2" x="5.327" y="126.406">暂无见面课播出</text>
</svg>
